<svg xmlns="http://www.w3.org/2000/svg" width="495" height="195" viewBox="0 0 495 195" role="img" aria-label="ComputAI 近 30 天"><rect x="0.5" y="0.5" width="494" height="194" rx="8" fill="#0d1117" stroke="#30363d"/><g font-family="ui-monospace,SFMono-Regular,Menlo,Consolas,&#x27;Noto Sans Mono CJK TC&#x27;,&#x27;PingFang TC&#x27;,monospace"><text x="25" y="36" font-size="15" fill="#67e8f9" text-anchor="start" font-weight="700">ComputAI · 近 30 天</text><text x="25" y="72" font-size="12" fill="#8b949e" text-anchor="start" font-weight="400">Token</text><text x="120" y="72" font-size="14" fill="#e6edf3" text-anchor="start" font-weight="700">1.4B</text><text x="25" y="100" font-size="12" fill="#8b949e" text-anchor="start" font-weight="400">API 價值</text><text x="120" y="100" font-size="14" fill="#e6edf3" text-anchor="start" font-weight="700">$1,431</text><text x="25" y="128" font-size="12" fill="#8b949e" text-anchor="start" font-weight="400">最常用模型</text><text x="120" y="128" font-size="14" fill="#e6edf3" text-anchor="start" font-weight="700">gpt-6-astra</text><text x="25" y="156" font-size="12" fill="#8b949e" text-anchor="start" font-weight="400">活躍天數</text><text x="120" y="156" font-size="14" fill="#e6edf3" text-anchor="start" font-weight="700">29 天，連續 21 天</text><rect x="285.0" y="93.3" width="10.4" height="48.7" rx="1" fill="#67e8f9"/><rect x="298.4" y="111.8" width="10.4" height="30.2" rx="1" fill="#67e8f9"/><rect x="311.9" y="137.6" width="10.4" height="4.4" rx="1" fill="#67e8f9"/><rect x="325.3" y="125.4" width="10.4" height="16.6" rx="1" fill="#67e8f9"/><rect x="338.7" y="126.7" width="10.4" height="15.3" rx="1" fill="#67e8f9"/><rect x="352.1" y="137.5" width="10.4" height="4.5" rx="1" fill="#67e8f9"/><rect x="365.6" y="81.7" width="10.4" height="60.3" rx="1" fill="#67e8f9"/><rect x="379.0" y="123.8" width="10.4" height="18.2" rx="1" fill="#67e8f9"/><rect x="392.4" y="139.8" width="10.4" height="2.2" rx="1" fill="#67e8f9"/><rect x="405.9" y="118.2" width="10.4" height="23.8" rx="1" fill="#67e8f9"/><rect x="419.3" y="115.7" width="10.4" height="26.3" rx="1" fill="#67e8f9"/><rect x="432.7" y="120.4" width="10.4" height="21.6" rx="1" fill="#67e8f9"/><rect x="446.1" y="123.6" width="10.4" height="18.4" rx="1" fill="#67e8f9"/><rect x="459.6" y="62.0" width="10.4" height="80.0" rx="1" fill="#67e8f9"/><text x="377.5" y="164" font-size="11" fill="#8b949e" text-anchor="middle" font-weight="400">近 14 天</text></g></svg>
